<svg width="39" height="26" viewBox="0 0 39 26" fill="none" xmlns="http://www.w3.org/2000/svg">
<path fill-rule="evenodd" clip-rule="evenodd" d="M23.8098 14.2727C23.1775 20.025 18.3092 24.4999 12.3975 24.4999C6.05625 24.4999 0.915649 19.3512 0.915649 12.9999C0.915649 6.6487 6.05625 1.5 12.3975 1.5C15.4275 1.5 18.1834 2.67556 20.2354 4.59617H16.7599V5.56185C15.4805 4.80748 13.9894 4.3748 12.3974 4.3748C7.64149 4.3748 3.78605 8.23632 3.78605 12.9998C3.78605 17.7632 7.64149 21.6247 12.3974 21.6247C16.7216 21.6247 20.3013 18.4325 20.9157 14.2727H23.8098Z" fill="white"/>
<path d="M23.8098 14.2727L24.3991 14.3374L24.4713 13.6799H23.8098V14.2727ZM20.2354 4.59617V5.18896H21.7362L20.6405 4.16338L20.2354 4.59617ZM16.7599 4.59617V4.00338H16.1671V4.59617H16.7599ZM16.7599 5.56185L16.4588 6.07248L17.3527 6.59954V5.56185H16.7599ZM20.9157 14.2727V13.6799H20.404L20.3293 14.1861L20.9157 14.2727ZM12.3975 25.0927C18.6156 25.0927 23.7341 20.3862 24.3991 14.3374L23.2206 14.2079C22.6208 19.6638 18.0029 23.9071 12.3975 23.9071V25.0927ZM0.32286 12.9999C0.32286 19.6777 5.72798 25.0927 12.3975 25.0927V23.9071C6.38451 23.9071 1.50844 19.0247 1.50844 12.9999H0.32286ZM12.3975 0.907211C5.72798 0.907211 0.32286 6.32219 0.32286 12.9999H1.50844C1.50844 6.97521 6.38451 2.09279 12.3975 2.09279V0.907211ZM20.6405 4.16338C18.4831 2.14414 15.584 0.907211 12.3975 0.907211V2.09279C15.2711 2.09279 17.8837 3.20699 19.8303 5.02895L20.6405 4.16338ZM16.7599 5.18896H20.2354V4.00338H16.7599V5.18896ZM17.3527 5.56185V4.59617H16.1671V5.56185H17.3527ZM17.061 5.05121C15.6929 4.24456 14.0982 3.78201 12.3974 3.78201V4.96759C13.8806 4.96759 15.2681 5.37041 16.4588 6.07248L17.061 5.05121ZM12.3974 3.78201C7.31323 3.78201 3.19326 7.90982 3.19326 12.9998H4.37884C4.37884 8.56283 7.96976 4.96759 12.3974 4.96759V3.78201ZM3.19326 12.9998C3.19326 18.0897 7.31323 22.2175 12.3974 22.2175V21.0319C7.96976 21.0319 4.37884 17.4367 4.37884 12.9998H3.19326ZM12.3974 22.2175C17.0205 22.2175 20.8455 18.805 21.5021 14.3593L20.3293 14.1861C19.7571 18.0601 16.4226 21.0319 12.3974 21.0319V22.2175ZM23.8098 13.6799H20.9157V14.8655H23.8098V13.6799Z" fill="white"/>
<path fill-rule="evenodd" clip-rule="evenodd" d="M20.2382 22.629C22.0428 23.8121 24.2003 24.5 26.5182 24.5C32.8594 24.5 38 19.3513 38 13.0001C38 6.64881 32.8594 1.50011 26.5182 1.50011C20.1769 1.50011 15.0363 6.64881 15.0363 13.0001C15.0363 13.0373 15.0365 13.0744 15.0368 13.1116L17.9075 13.1116C17.9071 13.0745 17.9068 13.0374 17.9068 13.0002C17.9068 8.23681 21.7623 4.37528 26.5182 4.37528C31.2742 4.37528 35.1296 8.23681 35.1296 13.0002C35.1296 17.7637 31.2742 21.6252 26.5182 21.6252C24.0416 21.6252 21.8091 20.578 20.2382 18.9017V22.629Z" fill="white"/>
<path d="M20.2382 22.629H19.6454V22.9492L19.9132 23.1247L20.2382 22.629ZM15.0368 13.1116L14.4441 13.1172L14.4497 13.7044H15.0368V13.1116ZM17.9075 13.1116V13.7044H18.5079L18.5003 13.1041L17.9075 13.1116ZM20.2382 18.9017L20.6707 18.4963L19.6454 17.4022V18.9017H20.2382ZM19.9132 23.1247C21.8114 24.3692 24.0813 25.0928 26.5182 25.0928V23.9072C24.3193 23.9072 22.2742 23.255 20.5632 22.1332L19.9132 23.1247ZM26.5182 25.0928C33.1877 25.0928 38.5928 19.6778 38.5928 13.0001H37.4072C37.4072 19.0248 32.5311 23.9072 26.5182 23.9072V25.0928ZM38.5928 13.0001C38.5928 6.3223 33.1877 0.907319 26.5182 0.907319V2.0929C32.5311 2.0929 37.4072 6.97532 37.4072 13.0001H38.5928ZM26.5182 0.907319C19.8486 0.907319 14.4435 6.3223 14.4435 13.0001H15.6291C15.6291 6.97532 20.5052 2.0929 26.5182 2.0929V0.907319ZM14.4435 13.0001C14.4435 13.0391 14.4437 13.0782 14.4441 13.1172L15.6296 13.106C15.6293 13.0707 15.6291 13.0354 15.6291 13.0001H14.4435ZM15.0368 13.7044L17.9075 13.7044V12.5188L15.0368 12.5188V13.7044ZM17.3141 13.0002C17.3141 13.0399 17.3143 13.0795 17.3148 13.1191L18.5003 13.1041C18.4998 13.0695 18.4996 13.0349 18.4996 13.0002H17.3141ZM26.5182 3.7825C21.434 3.7825 17.3141 7.9103 17.3141 13.0002H18.4996C18.4996 8.56332 22.0906 4.96807 26.5182 4.96807V3.7825ZM35.7224 13.0002C35.7224 7.9103 31.6024 3.7825 26.5182 3.7825V4.96807C30.9459 4.96807 34.5368 8.56332 34.5368 13.0002H35.7224ZM26.5182 22.218C31.6024 22.218 35.7224 18.0902 35.7224 13.0002H34.5368C34.5368 17.4372 30.9459 21.0324 26.5182 21.0324V22.218ZM19.8056 19.307C21.4839 21.0979 23.8708 22.218 26.5182 22.218V21.0324C24.2124 21.0324 22.1344 20.0582 20.6707 18.4963L19.8056 19.307ZM19.6454 18.9017V22.629H20.831V18.9017H19.6454Z" fill="white"/>
</svg>
